<?xml version="1.0" standalone="no"?>
<svg xmlns="http://www.w3.org/2000/svg" xmlns:xlink="http://www.w3.org/1999/xlink" width="1527pt" height="352pt" viewBox="0.00 0.00 1526.59 351.80">
<g id="graph0" class="graph" transform="translate(27.608001879196877,298.9608133006649) scale(0.9999999999999997)" data-name="G">

<polygon fill="white" stroke="none" points="-4,4 -4,-347.8 1522.59,-347.8 1522.59,4 -4,4" style=""/>
<!-- pmm_init 初始化 -->
<g id="node1" class="node" pointer-events="visible" data-name="pmm_init 初始化">

<ellipse fill="none" stroke="black" cx="404.79" cy="-325.8" rx="72.97" ry="18" style=""/>
<text text-anchor="middle" x="404.79" y="-321.6" font-family="Times,serif" font-size="14.00" style="">pmm_init 初始化</text>
</g>
<!-- init_pmm_manager 初始化内存管理器 -->
<g id="node2" class="node" pointer-events="visible" data-name="init_pmm_manager 初始化内存管理器">

<ellipse fill="none" stroke="black" cx="404.79" cy="-252.8" rx="147.04" ry="18" style=""/>
<text text-anchor="middle" x="404.79" y="-248.6" font-family="Times,serif" font-size="14.00" style="">init_pmm_manager 初始化内存管理器</text>
</g>
<!-- pmm_init 初始化&#45;&gt;init_pmm_manager 初始化内存管理器 -->
<g id="edge1" class="edge" data-name="pmm_init 初始化-&gt;init_pmm_manager 初始化内存管理器">

<path fill="none" stroke="black" d="M404.79,-307.61C404.79,-300.03 404.79,-290.9 404.79,-282.34" style=""/>
<polygon fill="black" stroke="black" points="408.29,-282.34 404.79,-272.34 401.29,-282.34 408.29,-282.34" style=""/>
</g>
<!-- page_init 页面初始化 -->
<g id="node3" class="node" pointer-events="visible" data-name="page_init 页面初始化">

<ellipse fill="none" stroke="black" cx="144.79" cy="-252.8" rx="85.7" ry="18" style=""/>
<text text-anchor="middle" x="144.79" y="-248.6" font-family="Times,serif" font-size="14.00" style="">page_init 页面初始化</text>
</g>
<!-- pmm_init 初始化&#45;&gt;page_init 页面初始化 -->
<g id="edge2" class="edge" data-name="pmm_init 初始化-&gt;page_init 页面初始化">

<path fill="none" stroke="black" d="M357.1,-311.78C314.85,-300.24 252.88,-283.32 206.79,-270.73" style=""/>
<polygon fill="black" stroke="black" points="207.76,-267.37 197.19,-268.11 205.92,-274.12 207.76,-267.37" style=""/>
</g>
<!-- check_alloc_page 检查分配页面 -->
<g id="node4" class="node" pointer-events="visible" data-name="check_alloc_page 检查分配页面">

<ellipse fill="none" stroke="black" cx="1104.79" cy="-252.8" rx="126.15" ry="18" style=""/>
<text text-anchor="middle" x="1104.79" y="-248.6" font-family="Times,serif" font-size="14.00" style="">check_alloc_page 检查分配页面</text>
</g>
<!-- pmm_init 初始化&#45;&gt;check_alloc_page 检查分配页面 -->
<g id="edge3" class="edge" data-name="pmm_init 初始化-&gt;check_alloc_page 检查分配页面">

<path fill="none" stroke="black" d="M471.28,-318.06C591.35,-305.88 845.55,-280.09 992.84,-265.15" style=""/>
<polygon fill="black" stroke="black" points="993.03,-268.65 1002.63,-264.16 992.32,-261.69 993.03,-268.65" style=""/>
</g>
<!-- pmm_manager&#45;&gt;init 内存管理器初始化 -->
<g id="node5" class="node" pointer-events="visible" data-name="pmm_manager-&gt;init 内存管理器初始化">

<ellipse fill="none" stroke="black" cx="404.79" cy="-179.8" rx="150.71" ry="18" style=""/>
<text text-anchor="middle" x="404.79" y="-175.6" font-family="Times,serif" font-size="14.00" style="">pmm_manager-&gt;init 内存管理器初始化</text>
</g>
<!-- init_pmm_manager 初始化内存管理器&#45;&gt;pmm_manager&#45;&gt;init 内存管理器初始化 -->
<g id="edge4" class="edge" data-name="init_pmm_manager 初始化内存管理器-&gt;pmm_manager-&gt;init 内存管理器初始化">

<path fill="none" stroke="black" d="M404.79,-234.61C404.79,-227.03 404.79,-217.9 404.79,-209.34" style=""/>
<polygon fill="black" stroke="black" points="408.29,-209.34 404.79,-199.34 401.29,-209.34 408.29,-209.34" style=""/>
</g>
<!-- init_memmap 初始化内存映射 -->
<g id="node6" class="node" pointer-events="visible" data-name="init_memmap 初始化内存映射">

<ellipse fill="none" stroke="black" cx="117.79" cy="-179.8" rx="117.58" ry="18" style=""/>
<text text-anchor="middle" x="117.79" y="-175.6" font-family="Times,serif" font-size="14.00" style="">init_memmap 初始化内存映射</text>
</g>
<!-- page_init 页面初始化&#45;&gt;init_memmap 初始化内存映射 -->
<g id="edge5" class="edge" data-name="page_init 页面初始化-&gt;init_memmap 初始化内存映射">

<path fill="none" stroke="black" d="M138.26,-234.61C135.27,-226.76 131.66,-217.27 128.31,-208.46" style=""/>
<polygon fill="black" stroke="black" points="131.63,-207.35 124.8,-199.24 125.09,-209.83 131.63,-207.35" style=""/>
</g>
<!-- pmm_manager&#45;&gt;check 内存管理器检查 -->
<g id="node8" class="node" pointer-events="visible" data-name="pmm_manager-&gt;check 内存管理器检查">

<ellipse fill="none" stroke="black" cx="978.79" cy="-179.8" rx="153" ry="18" style=""/>
<text text-anchor="middle" x="978.79" y="-175.6" font-family="Times,serif" font-size="14.00" style="">pmm_manager-&gt;check 内存管理器检查</text>
</g>
<!-- check_alloc_page 检查分配页面&#45;&gt;pmm_manager&#45;&gt;check 内存管理器检查 -->
<g id="edge7" class="edge" data-name="check_alloc_page 检查分配页面-&gt;pmm_manager-&gt;check 内存管理器检查">

<path fill="none" stroke="black" d="M1074.93,-234.97C1058.18,-225.54 1037.07,-213.64 1018.9,-203.4" style=""/>
<polygon fill="black" stroke="black" points="1020.62,-200.35 1010.19,-198.49 1017.19,-206.45 1020.62,-200.35" style=""/>
</g>
<!-- pmm_manager&#45;&gt;init_memmap 内存管理器初始化内存映射 -->
<g id="node7" class="node" pointer-events="visible" data-name="pmm_manager-&gt;init_memmap 内存管理器初始化内存映射">

<ellipse fill="none" stroke="black" cx="308.79" cy="-106.8" rx="220.68" ry="18" style=""/>
<text text-anchor="middle" x="308.79" y="-102.6" font-family="Times,serif" font-size="14.00" style="">pmm_manager-&gt;init_memmap 内存管理器初始化内存映射</text>
</g>
<!-- init_memmap 初始化内存映射&#45;&gt;pmm_manager&#45;&gt;init_memmap 内存管理器初始化内存映射 -->
<g id="edge6" class="edge" data-name="init_memmap 初始化内存映射-&gt;pmm_manager-&gt;init_memmap 内存管理器初始化内存映射">

<path fill="none" stroke="black" d="M161.13,-162.69C188.19,-152.63 223.3,-139.58 252.5,-128.73" style=""/>
<polygon fill="black" stroke="black" points="253.39,-132.13 261.54,-125.36 250.95,-125.57 253.39,-132.13" style=""/>
</g>
<!-- alloc_pages 分配页面 -->
<g id="node13" class="node" pointer-events="visible" data-name="alloc_pages 分配页面">

<ellipse fill="none" stroke="black" cx="1188.79" cy="-106.8" rx="88.01" ry="18" style=""/>
<text text-anchor="middle" x="1188.79" y="-102.6" font-family="Times,serif" font-size="14.00" style="">alloc_pages 分配页面</text>
</g>
<!-- pmm_manager&#45;&gt;check 内存管理器检查&#45;&gt;alloc_pages 分配页面 -->
<g id="edge14" class="edge" data-name="pmm_manager-&gt;check 内存管理器检查-&gt;alloc_pages 分配页面">

<path fill="none" stroke="black" d="M1027.5,-162.33C1059.28,-151.59 1100.84,-137.53 1133.81,-126.39" style=""/>
<polygon fill="black" stroke="black" points="1134.85,-129.73 1143.21,-123.21 1132.61,-123.1 1134.85,-129.73" style=""/>
</g>
<!-- free_pages 释放页面 -->
<g id="node14" class="node" pointer-events="visible" data-name="free_pages 释放页面">

<ellipse fill="none" stroke="black" cx="771.79" cy="-106.8" rx="84.48" ry="18" style=""/>
<text text-anchor="middle" x="771.79" y="-102.6" font-family="Times,serif" font-size="14.00" style="">free_pages 释放页面</text>
</g>
<!-- pmm_manager&#45;&gt;check 内存管理器检查&#45;&gt;free_pages 释放页面 -->
<g id="edge16" class="edge" data-name="pmm_manager-&gt;check 内存管理器检查-&gt;free_pages 释放页面">

<path fill="none" stroke="black" d="M930.52,-162.24C899.18,-151.49 858.28,-137.47 825.85,-126.34" style=""/>
<polygon fill="black" stroke="black" points="827.23,-123.11 816.63,-123.18 824.96,-129.74 827.23,-123.11" style=""/>
</g>
<!-- nr_free_pages 空闲页面数 -->
<g id="node15" class="node" pointer-events="visible" data-name="nr_free_pages 空闲页面数">

<ellipse fill="none" stroke="black" cx="978.79" cy="-106.8" rx="104.21" ry="18" style=""/>
<text text-anchor="middle" x="978.79" y="-102.6" font-family="Times,serif" font-size="14.00" style="">nr_free_pages 空闲页面数</text>
</g>
<!-- pmm_manager&#45;&gt;check 内存管理器检查&#45;&gt;nr_free_pages 空闲页面数 -->
<g id="edge18" class="edge" data-name="pmm_manager-&gt;check 内存管理器检查-&gt;nr_free_pages 空闲页面数">

<path fill="none" stroke="black" d="M978.79,-161.61C978.79,-154.03 978.79,-144.9 978.79,-136.34" style=""/>
<polygon fill="black" stroke="black" points="982.29,-136.34 978.79,-126.34 975.29,-136.34 982.29,-136.34" style=""/>
</g>
<!-- pmm_manager 内存管理器 -->
<g id="node9" class="node" pointer-events="visible" data-name="pmm_manager 内存管理器">

<polygon fill="none" stroke="#e6add8" points="731.76,-270.8 579.82,-270.8 575.82,-266.8 575.82,-234.8 727.76,-234.8 731.76,-238.8 731.76,-270.8" style=""/>
<polyline fill="none" stroke="#e6add8" points="727.76,-266.8 575.82,-266.8" style=""/>
<polyline fill="none" stroke="#e6add8" points="727.76,-266.8 727.76,-234.8" style=""/>
<polyline fill="none" stroke="#e6add8" points="727.76,-266.8 731.76,-270.8" style=""/>
<text text-anchor="middle" x="653.79" y="-248.6" font-family="Times,serif" font-size="14.00" style="">pmm_manager 内存管理器</text>
</g>
<!-- pmm_manager 内存管理器&#45;&gt;pmm_manager&#45;&gt;init 内存管理器初始化 -->
<g id="edge9" class="edge" data-name="pmm_manager 内存管理器-&gt;pmm_manager-&gt;init 内存管理器初始化">

<path fill="none" stroke="red" d="M592.56,-234.34C555.21,-223.69 507.51,-210.09 469.54,-199.26" style=""/>
<ellipse fill="red" stroke="red" cx="465.42" cy="-198.09" rx="4" ry="4" style=""/>
</g>
<!-- pmm_manager 内存管理器&#45;&gt;pmm_manager&#45;&gt;init_memmap 内存管理器初始化内存映射 -->
<g id="edge8" class="edge" data-name="pmm_manager 内存管理器-&gt;pmm_manager-&gt;init_memmap 内存管理器初始化内存映射">

<path fill="none" stroke="red" d="M628.48,-234.38C621.48,-229.08 614.08,-223 607.79,-216.8 585.71,-195 591.12,-178.22 564.79,-161.8 534.55,-142.94 498.8,-130.57 463.76,-122.48" style=""/>
<ellipse fill="red" stroke="red" cx="459.74" cy="-121.59" rx="4" ry="4" style=""/>
</g>
<!-- pmm_manager 内存管理器&#45;&gt;pmm_manager&#45;&gt;check 内存管理器检查 -->
<g id="edge13" class="edge" data-name="pmm_manager 内存管理器-&gt;pmm_manager-&gt;check 内存管理器检查">

<path fill="none" stroke="red" d="M732.05,-234.7C782.83,-223.61 848.78,-209.2 899.72,-198.07" style=""/>
<ellipse fill="red" stroke="red" cx="904.01" cy="-197.14" rx="4" ry="4" style=""/>
</g>
<!-- pmm_manager&#45;&gt;alloc_pages 内存管理器分配页面 -->
<g id="node10" class="node" pointer-events="visible" data-name="pmm_manager-&gt;alloc_pages 内存管理器分配页面">

<ellipse fill="none" stroke="black" cx="1327.79" cy="-18" rx="190.61" ry="18" style=""/>
<text text-anchor="middle" x="1327.79" y="-13.8" font-family="Times,serif" font-size="14.00" style="">pmm_manager-&gt;alloc_pages 内存管理器分配页面</text>
</g>
<!-- pmm_manager 内存管理器&#45;&gt;pmm_manager&#45;&gt;alloc_pages 内存管理器分配页面 -->
<g id="edge10" class="edge" data-name="pmm_manager 内存管理器-&gt;pmm_manager-&gt;alloc_pages 内存管理器分配页面">

<path fill="none" stroke="red" d="M732.23,-251.6C829.9,-249.43 1000.93,-239.3 1140.79,-197.8 1209.96,-177.28 1237.08,-178.03 1285.79,-124.8 1306.4,-102.28 1317.43,-68.41 1322.94,-45.09" style=""/>
<ellipse fill="red" stroke="red" cx="1323.88" cy="-40.81" rx="4" ry="4" style=""/>
</g>
<!-- pmm_manager&#45;&gt;free_pages 内存管理器释放页面 -->
<g id="node11" class="node" pointer-events="visible" data-name="pmm_manager-&gt;free_pages 内存管理器释放页面">

<ellipse fill="none" stroke="black" cx="499.79" cy="-18" rx="187.08" ry="18" style=""/>
<text text-anchor="middle" x="499.79" y="-13.8" font-family="Times,serif" font-size="14.00" style="">pmm_manager-&gt;free_pages 内存管理器释放页面</text>
</g>
<!-- pmm_manager 内存管理器&#45;&gt;pmm_manager&#45;&gt;free_pages 内存管理器释放页面 -->
<g id="edge11" class="edge" data-name="pmm_manager 内存管理器-&gt;pmm_manager-&gt;free_pages 内存管理器释放页面">

<path fill="none" stroke="red" d="M642.22,-234.3C615.12,-193.33 547.48,-91.09 516.17,-43.76" style=""/>
<ellipse fill="red" stroke="red" cx="513.77" cy="-40.14" rx="4" ry="4" style=""/>
</g>
<!-- pmm_manager&#45;&gt;nr_free_pages 内存管理器空闲页面数 -->
<g id="node12" class="node" pointer-events="visible" data-name="pmm_manager-&gt;nr_free_pages 内存管理器空闲页面数">

<ellipse fill="none" stroke="black" cx="911.79" cy="-18" rx="207.31" ry="18" style=""/>
<text text-anchor="middle" x="911.79" y="-13.8" font-family="Times,serif" font-size="14.00" style="">pmm_manager-&gt;nr_free_pages 内存管理器空闲页面数</text>
</g>
<!-- pmm_manager 内存管理器&#45;&gt;pmm_manager&#45;&gt;nr_free_pages 内存管理器空闲页面数 -->
<g id="edge12" class="edge" data-name="pmm_manager 内存管理器-&gt;pmm_manager-&gt;nr_free_pages 内存管理器空闲页面数">

<path fill="none" stroke="red" d="M649.33,-234.42C640.64,-196.1 626.21,-103.78 673.79,-54 684.2,-43.11 707.63,-35.58 735.93,-30.38" style=""/>
<ellipse fill="red" stroke="red" cx="740.01" cy="-29.67" rx="4" ry="4" style=""/>
</g>
<!-- alloc_pages 分配页面&#45;&gt;pmm_manager&#45;&gt;alloc_pages 内存管理器分配页面 -->
<g id="edge15" class="edge" data-name="alloc_pages 分配页面-&gt;pmm_manager-&gt;alloc_pages 内存管理器分配页面">

<path fill="none" stroke="black" d="M1214.22,-89.3C1230.13,-79.04 1251.08,-65.63 1269.79,-54 1276.17,-50.04 1282.97,-45.88 1289.59,-41.86" style=""/>
<polygon fill="black" stroke="black" points="1291.04,-45.07 1297.79,-36.9 1287.42,-39.08 1291.04,-45.07" style=""/>
<text text-anchor="middle" x="1280.29" y="-58.2" font-family="Times,serif" font-size="14.00" style="">递归</text>
</g>
<!-- free_pages 释放页面&#45;&gt;pmm_manager&#45;&gt;free_pages 内存管理器释放页面 -->
<g id="edge17" class="edge" data-name="free_pages 释放页面-&gt;pmm_manager-&gt;free_pages 内存管理器释放页面">

<path fill="none" stroke="black" d="M734.38,-90.25C707.28,-79.31 669.62,-64.76 635.79,-54 617.81,-48.28 598.28,-42.82 579.77,-37.99" style=""/>
<polygon fill="black" stroke="black" points="580.73,-34.62 570.17,-35.52 578.98,-41.4 580.73,-34.62" style=""/>
<text text-anchor="middle" x="692.29" y="-58.2" font-family="Times,serif" font-size="14.00" style="">递归</text>
</g>
<!-- nr_free_pages 空闲页面数&#45;&gt;pmm_manager&#45;&gt;nr_free_pages 内存管理器空闲页面数 -->
<g id="edge19" class="edge" data-name="nr_free_pages 空闲页面数-&gt;pmm_manager-&gt;nr_free_pages 内存管理器空闲页面数">

<path fill="none" stroke="black" d="M965.55,-88.65C955.98,-76.25 942.87,-59.27 932,-45.18" style=""/>
<polygon fill="black" stroke="black" points="935.04,-43.39 926.15,-37.61 929.49,-47.66 935.04,-43.39" style=""/>
<text text-anchor="middle" x="962.29" y="-58.2" font-family="Times,serif" font-size="14.00" style="">递归</text>
</g>
</g>
</svg>